<svg aria-hidden="true" style="position: absolute; width: 0; height: 0; overflow: hidden;" version="1.1" xmlns="http://www.w3.org/2000/svg" xmlns:xlink="http://www.w3.org/1999/xlink">
<defs>
<symbol id="icon-skobka" viewBox="0 0 43 32">
<path d="M32.008 0c1.928 0 3.752 0.52 5.464 1.56 1.72 1.040 3.112 2.536 4.184 4.488 1.024 1.952 1.544 4.248 1.544 6.888 0 2.648-0.648 5.232-1.936 7.744-0.424 0.912-1.2 2.080-2.312 3.512-1.152 1.432-2.224 2.664-3.216 3.704l-4.048 4.104-2.888-4.816c2.008-1.256 3.792-2.816 5.328-4.68 1.544-1.824 2.32-3.496 2.32-5.016 0-0.776-0.176-1.408-0.52-1.88-1.496 1.080-3.168 1.624-5.008 1.624-1.328 0-2.592-0.416-3.792-1.232-1.248-0.784-2.232-1.824-2.96-3.128-0.768-1.256-1.16-2.56-1.16-3.904 0-1.512 0.456-2.968 1.352-4.352 0.856-1.392 1.992-2.52 3.408-3.384 1.368-0.824 2.784-1.232 4.24-1.232zM8.928 0c1.936 0 3.752 0.52 5.472 1.56 1.712 1.040 3.104 2.536 4.176 4.488 1.024 1.952 1.544 4.248 1.544 6.888 0 1.864-0.24 3.536-0.712 5.008-0.472 1.52-1.28 3.104-2.44 4.752-1.112 1.56-2.168 2.864-3.152 3.904-0.984 1.080-2.696 2.88-5.144 5.4l-2.888-4.816c2.016-1.256 3.792-2.816 5.336-4.68 1.544-1.824 2.312-3.496 2.312-5.016 0-0.776-0.168-1.408-0.512-1.88-1.504 1.080-3.176 1.624-5.016 1.624-1.328 0-2.592-0.416-3.792-1.232-1.248-0.784-2.232-1.824-2.96-3.128-0.768-1.256-1.152-2.56-1.152-3.904 0-1.512 0.424-2.968 1.28-4.352 0.856-1.392 1.992-2.52 3.408-3.384 1.376-0.824 2.784-1.232 4.24-1.232z"></path>
</symbol>
</defs>
</svg>
